<?xml version="1.0" encoding="UTF-8"?>
<!-- Do not edit this file with editors other than draw.io -->
<!DOCTYPE svg PUBLIC "-//W3C//DTD SVG 1.1//EN" "http://www.w3.org/Graphics/SVG/1.1/DTD/svg11.dtd">
<svg xmlns="http://www.w3.org/2000/svg" style="background: #ffffff; background-color: light-dark(#ffffff, var(--ge-dark-color, #121212)); color-scheme: light dark;" xmlns:xlink="http://www.w3.org/1999/xlink" version="1.1" width="454px" height="331px" viewBox="-0.5 -0.5 454 331" content="&lt;mxfile host=&quot;app.diagrams.net&quot; agent=&quot;Mozilla/5.0 (Windows NT 10.0; Win64; x64) AppleWebKit/537.36 (KHTML, like Gecko) Chrome/138.0.0.0 Safari/537.36 Edg/138.0.0.0&quot; version=&quot;28.0.7&quot; scale=&quot;1&quot; border=&quot;0&quot;&gt;&#10;  &lt;diagram name=&quot;Página-1&quot; id=&quot;FjhW0xL3C4kMK65oO89E&quot;&gt;&#10;    &lt;mxGraphModel dx=&quot;1034&quot; dy=&quot;622&quot; grid=&quot;1&quot; gridSize=&quot;10&quot; guides=&quot;1&quot; tooltips=&quot;1&quot; connect=&quot;1&quot; arrows=&quot;1&quot; fold=&quot;1&quot; page=&quot;1&quot; pageScale=&quot;1&quot; pageWidth=&quot;827&quot; pageHeight=&quot;1169&quot; math=&quot;0&quot; shadow=&quot;0&quot;&gt;&#10;      &lt;root&gt;&#10;        &lt;mxCell id=&quot;0&quot; /&gt;&#10;        &lt;mxCell id=&quot;1&quot; parent=&quot;0&quot; /&gt;&#10;        &lt;mxCell id=&quot;LsS-yT-F-6-oPk5ZD-E2-1&quot; value=&quot;&quot; style=&quot;sketch=0;verticalLabelPosition=bottom;sketch=0;aspect=fixed;html=1;verticalAlign=top;strokeColor=none;fillColor=#000000;align=center;outlineConnect=0;pointerEvents=1;shape=mxgraph.citrix2.firewall;&quot; vertex=&quot;1&quot; parent=&quot;1&quot;&gt;&#10;          &lt;mxGeometry x=&quot;320&quot; y=&quot;230&quot; width=&quot;70.12&quot; height=&quot;70&quot; as=&quot;geometry&quot; /&gt;&#10;        &lt;/mxCell&gt;&#10;        &lt;mxCell id=&quot;LsS-yT-F-6-oPk5ZD-E2-17&quot; style=&quot;edgeStyle=none;curved=1;rounded=0;orthogonalLoop=1;jettySize=auto;html=1;fontSize=12;startSize=8;endSize=8;&quot; edge=&quot;1&quot; parent=&quot;1&quot; source=&quot;LsS-yT-F-6-oPk5ZD-E2-2&quot; target=&quot;LsS-yT-F-6-oPk5ZD-E2-1&quot;&gt;&#10;          &lt;mxGeometry relative=&quot;1&quot; as=&quot;geometry&quot; /&gt;&#10;        &lt;/mxCell&gt;&#10;        &lt;mxCell id=&quot;LsS-yT-F-6-oPk5ZD-E2-2&quot; value=&quot;&quot; style=&quot;verticalLabelPosition=bottom;sketch=0;html=1;fillColor=light-dark(#A153A0, #ffffff);strokeColor=#ffffff;verticalAlign=top;align=center;points=[[0,0.5,0],[0.125,0.25,0],[0.25,0,0],[0.5,0,0],[0.75,0,0],[0.875,0.25,0],[1,0.5,0],[0.875,0.75,0],[0.75,1,0],[0.5,1,0],[0.125,0.75,0]];pointerEvents=1;shape=mxgraph.cisco_safe.compositeIcon;bgIcon=mxgraph.cisco_safe.design.blank_device;resIcon=mxgraph.cisco_safe.design.router_2;&quot; vertex=&quot;1&quot; parent=&quot;1&quot;&gt;&#10;          &lt;mxGeometry x=&quot;414&quot; y=&quot;310&quot; width=&quot;50&quot; height=&quot;45&quot; as=&quot;geometry&quot; /&gt;&#10;        &lt;/mxCell&gt;&#10;        &lt;mxCell id=&quot;LsS-yT-F-6-oPk5ZD-E2-3&quot; value=&quot;&quot; style=&quot;sketch=0;points=[[0.015,0.015,0],[0.985,0.015,0],[0.985,0.985,0],[0.015,0.985,0],[0.25,0,0],[0.5,0,0],[0.75,0,0],[1,0.25,0],[1,0.5,0],[1,0.75,0],[0.75,1,0],[0.5,1,0],[0.25,1,0],[0,0.75,0],[0,0.5,0],[0,0.25,0]];verticalLabelPosition=bottom;html=1;verticalAlign=top;aspect=fixed;align=center;pointerEvents=1;shape=mxgraph.cisco19.rect;prIcon=l2_switch;fillColor=#FAFAFA;strokeColor=light-dark(#005073, #ffffff);&quot; vertex=&quot;1&quot; parent=&quot;1&quot;&gt;&#10;          &lt;mxGeometry x=&quot;424&quot; y=&quot;420&quot; width=&quot;30&quot; height=&quot;30&quot; as=&quot;geometry&quot; /&gt;&#10;        &lt;/mxCell&gt;&#10;        &lt;mxCell id=&quot;LsS-yT-F-6-oPk5ZD-E2-16&quot; style=&quot;edgeStyle=none;curved=1;rounded=0;orthogonalLoop=1;jettySize=auto;html=1;fontSize=12;startSize=8;endSize=8;&quot; edge=&quot;1&quot; parent=&quot;1&quot; source=&quot;LsS-yT-F-6-oPk5ZD-E2-4&quot; target=&quot;LsS-yT-F-6-oPk5ZD-E2-1&quot;&gt;&#10;          &lt;mxGeometry relative=&quot;1&quot; as=&quot;geometry&quot; /&gt;&#10;        &lt;/mxCell&gt;&#10;        &lt;mxCell id=&quot;LsS-yT-F-6-oPk5ZD-E2-4&quot; value=&quot;&quot; style=&quot;verticalLabelPosition=bottom;sketch=0;html=1;fillColor=light-dark(#A153A0, #ffffff);strokeColor=#ffffff;verticalAlign=top;align=center;points=[[0,0.5,0],[0.125,0.25,0],[0.25,0,0],[0.5,0,0],[0.75,0,0],[0.875,0.25,0],[1,0.5,0],[0.875,0.75,0],[0.75,1,0],[0.5,1,0],[0.125,0.75,0]];pointerEvents=1;shape=mxgraph.cisco_safe.compositeIcon;bgIcon=mxgraph.cisco_safe.design.blank_device;resIcon=mxgraph.cisco_safe.design.router_2;&quot; vertex=&quot;1&quot; parent=&quot;1&quot;&gt;&#10;          &lt;mxGeometry x=&quot;240&quot; y=&quot;310&quot; width=&quot;50&quot; height=&quot;45&quot; as=&quot;geometry&quot; /&gt;&#10;        &lt;/mxCell&gt;&#10;        &lt;mxCell id=&quot;LsS-yT-F-6-oPk5ZD-E2-5&quot; value=&quot;&quot; style=&quot;sketch=0;points=[[0.015,0.015,0],[0.985,0.015,0],[0.985,0.985,0],[0.015,0.985,0],[0.25,0,0],[0.5,0,0],[0.75,0,0],[1,0.25,0],[1,0.5,0],[1,0.75,0],[0.75,1,0],[0.5,1,0],[0.25,1,0],[0,0.75,0],[0,0.5,0],[0,0.25,0]];verticalLabelPosition=bottom;html=1;verticalAlign=top;aspect=fixed;align=center;pointerEvents=1;shape=mxgraph.cisco19.rect;prIcon=l2_switch;fillColor=#FAFAFA;strokeColor=light-dark(#005073, #ffffff);&quot; vertex=&quot;1&quot; parent=&quot;1&quot;&gt;&#10;          &lt;mxGeometry x=&quot;250&quot; y=&quot;420&quot; width=&quot;30&quot; height=&quot;30&quot; as=&quot;geometry&quot; /&gt;&#10;        &lt;/mxCell&gt;&#10;        &lt;mxCell id=&quot;LsS-yT-F-6-oPk5ZD-E2-6&quot; value=&quot;&quot; style=&quot;shadow=0;dashed=0;html=1;labelPosition=center;verticalLabelPosition=bottom;verticalAlign=top;align=center;outlineConnect=0;shape=mxgraph.veeam.3d.vm_linux;fillColor=light-dark(#6A00FF,#FFE6E6);fontColor=#ffffff;strokeColor=#3700CC;&quot; vertex=&quot;1&quot; parent=&quot;1&quot;&gt;&#10;          &lt;mxGeometry x=&quot;140&quot; y=&quot;450&quot; width=&quot;40&quot; height=&quot;50&quot; as=&quot;geometry&quot; /&gt;&#10;        &lt;/mxCell&gt;&#10;        &lt;mxCell id=&quot;LsS-yT-F-6-oPk5ZD-E2-7&quot; style=&quot;edgeStyle=orthogonalEdgeStyle;rounded=0;orthogonalLoop=1;jettySize=auto;html=1;entryX=0;entryY=0.5;entryDx=0;entryDy=0;entryPerimeter=0;fontSize=12;startSize=8;endSize=8;&quot; edge=&quot;1&quot; parent=&quot;1&quot; source=&quot;LsS-yT-F-6-oPk5ZD-E2-6&quot; target=&quot;LsS-yT-F-6-oPk5ZD-E2-5&quot;&gt;&#10;          &lt;mxGeometry relative=&quot;1&quot; as=&quot;geometry&quot;&gt;&#10;            &lt;Array as=&quot;points&quot;&gt;&#10;              &lt;mxPoint x=&quot;160&quot; y=&quot;435&quot; /&gt;&#10;            &lt;/Array&gt;&#10;          &lt;/mxGeometry&gt;&#10;        &lt;/mxCell&gt;&#10;        &lt;mxCell id=&quot;LsS-yT-F-6-oPk5ZD-E2-8&quot; value=&quot;&quot; style=&quot;shadow=0;dashed=0;html=1;labelPosition=center;verticalLabelPosition=bottom;verticalAlign=top;align=center;outlineConnect=0;shape=mxgraph.veeam.3d.vm_linux;fillColor=light-dark(#6A00FF,#FFE6E6);fontColor=#ffffff;strokeColor=#3700CC;&quot; vertex=&quot;1&quot; parent=&quot;1&quot;&gt;&#10;          &lt;mxGeometry x=&quot;190&quot; y=&quot;510&quot; width=&quot;40&quot; height=&quot;50&quot; as=&quot;geometry&quot; /&gt;&#10;        &lt;/mxCell&gt;&#10;        &lt;mxCell id=&quot;LsS-yT-F-6-oPk5ZD-E2-9&quot; style=&quot;edgeStyle=orthogonalEdgeStyle;rounded=0;orthogonalLoop=1;jettySize=auto;html=1;entryX=0.5;entryY=1;entryDx=0;entryDy=0;entryPerimeter=0;fontSize=12;startSize=8;endSize=8;&quot; edge=&quot;1&quot; parent=&quot;1&quot; source=&quot;LsS-yT-F-6-oPk5ZD-E2-8&quot; target=&quot;LsS-yT-F-6-oPk5ZD-E2-5&quot;&gt;&#10;          &lt;mxGeometry relative=&quot;1&quot; as=&quot;geometry&quot; /&gt;&#10;        &lt;/mxCell&gt;&#10;        &lt;mxCell id=&quot;LsS-yT-F-6-oPk5ZD-E2-10&quot; value=&quot;&quot; style=&quot;image;sketch=0;aspect=fixed;html=1;points=[];align=center;fontSize=12;image=img/lib/mscae/VM_Linux.svg;&quot; vertex=&quot;1&quot; parent=&quot;1&quot;&gt;&#10;          &lt;mxGeometry x=&quot;500&quot; y=&quot;470&quot; width=&quot;32.61&quot; height=&quot;30&quot; as=&quot;geometry&quot; /&gt;&#10;        &lt;/mxCell&gt;&#10;        &lt;mxCell id=&quot;LsS-yT-F-6-oPk5ZD-E2-11&quot; value=&quot;&quot; style=&quot;image;sketch=0;aspect=fixed;html=1;points=[];align=center;fontSize=12;image=img/lib/mscae/VM_Linux.svg;&quot; vertex=&quot;1&quot; parent=&quot;1&quot;&gt;&#10;          &lt;mxGeometry x=&quot;560&quot; y=&quot;470&quot; width=&quot;32.61&quot; height=&quot;30&quot; as=&quot;geometry&quot; /&gt;&#10;        &lt;/mxCell&gt;&#10;        &lt;mxCell id=&quot;LsS-yT-F-6-oPk5ZD-E2-12&quot; style=&quot;edgeStyle=none;curved=1;rounded=0;orthogonalLoop=1;jettySize=auto;html=1;entryX=1;entryY=0.5;entryDx=0;entryDy=0;entryPerimeter=0;fontSize=12;startSize=8;endSize=8;&quot; edge=&quot;1&quot; parent=&quot;1&quot; source=&quot;LsS-yT-F-6-oPk5ZD-E2-10&quot; target=&quot;LsS-yT-F-6-oPk5ZD-E2-3&quot;&gt;&#10;          &lt;mxGeometry relative=&quot;1&quot; as=&quot;geometry&quot; /&gt;&#10;        &lt;/mxCell&gt;&#10;        &lt;mxCell id=&quot;LsS-yT-F-6-oPk5ZD-E2-13&quot; style=&quot;edgeStyle=none;curved=1;rounded=0;orthogonalLoop=1;jettySize=auto;html=1;entryX=1;entryY=0.5;entryDx=0;entryDy=0;entryPerimeter=0;fontSize=12;startSize=8;endSize=8;&quot; edge=&quot;1&quot; parent=&quot;1&quot; source=&quot;LsS-yT-F-6-oPk5ZD-E2-11&quot; target=&quot;LsS-yT-F-6-oPk5ZD-E2-3&quot;&gt;&#10;          &lt;mxGeometry relative=&quot;1&quot; as=&quot;geometry&quot; /&gt;&#10;        &lt;/mxCell&gt;&#10;        &lt;mxCell id=&quot;LsS-yT-F-6-oPk5ZD-E2-14&quot; style=&quot;edgeStyle=none;curved=1;rounded=0;orthogonalLoop=1;jettySize=auto;html=1;entryX=0.464;entryY=0.8;entryDx=0;entryDy=0;entryPerimeter=0;fontSize=12;startSize=8;endSize=8;&quot; edge=&quot;1&quot; parent=&quot;1&quot; source=&quot;LsS-yT-F-6-oPk5ZD-E2-3&quot; target=&quot;LsS-yT-F-6-oPk5ZD-E2-2&quot;&gt;&#10;          &lt;mxGeometry relative=&quot;1&quot; as=&quot;geometry&quot; /&gt;&#10;        &lt;/mxCell&gt;&#10;        &lt;mxCell id=&quot;LsS-yT-F-6-oPk5ZD-E2-15&quot; style=&quot;edgeStyle=none;curved=1;rounded=0;orthogonalLoop=1;jettySize=auto;html=1;entryX=0.5;entryY=1;entryDx=0;entryDy=0;entryPerimeter=0;fontSize=12;startSize=8;endSize=8;&quot; edge=&quot;1&quot; parent=&quot;1&quot; source=&quot;LsS-yT-F-6-oPk5ZD-E2-5&quot; target=&quot;LsS-yT-F-6-oPk5ZD-E2-4&quot;&gt;&#10;          &lt;mxGeometry relative=&quot;1&quot; as=&quot;geometry&quot; /&gt;&#10;        &lt;/mxCell&gt;&#10;      &lt;/root&gt;&#10;    &lt;/mxGraphModel&gt;&#10;  &lt;/diagram&gt;&#10;&lt;/mxfile&gt;&#10;"><defs/><rect fill="#ffffff" width="100%" height="100%" x="0" y="0" style="fill: light-dark(#ffffff, var(--ge-dark-color, #121212));"/><g><g data-cell-id="0"><g data-cell-id="1"><g data-cell-id="LsS-yT-F-6-oPk5ZD-E2-1"><g><rect x="180" y="0" width="70.12" height="70" fill="none" stroke="none" pointer-events="all"/><path d="M 224.18 0 C 224.08 0 223.97 0.01 223.86 0.02 L 223.86 0.02 C 223.86 0.02 223.86 0.02 223.86 0.02 C 219.46 0.73 215.82 1.95 212.1 4.32 C 212.1 4.32 212.1 4.32 212.09 4.32 C 208.82 6.27 205.49 9.36 202.51 14.26 L 199.29 11.06 C 199.27 11.05 199.25 11.03 199.24 11.02 C 198.72 10.59 198.11 10.34 197.5 10.37 C 196.88 10.4 196.31 10.72 195.91 11.22 C 195.9 11.22 195.9 11.22 195.9 11.23 C 193.41 14.41 191.79 17.77 191.18 20.52 C 191.18 20.52 191.18 20.53 191.18 20.53 C 189.94 26.47 190.67 29.75 191.75 33.56 C 191.86 33.95 192.26 34.17 192.64 34.06 C 193.03 33.95 193.25 33.55 193.14 33.17 C 192.07 29.4 191.4 26.56 192.59 20.83 C 193.13 18.38 194.66 15.15 197.03 12.13 C 197.22 11.9 197.39 11.83 197.57 11.82 C 197.75 11.81 198.01 11.88 198.31 12.13 L 202.12 15.91 C 202.28 16.07 202.51 16.14 202.73 16.11 C 202.95 16.08 203.15 15.95 203.26 15.75 C 206.25 10.54 209.6 7.48 212.85 5.55 C 212.86 5.55 212.87 5.55 212.87 5.54 C 216.42 3.27 219.81 2.14 224.08 1.45 C 224.38 1.41 224.52 1.51 224.67 1.75 C 224.82 1.98 224.87 2.35 224.79 2.57 C 222.56 9.17 223.25 14.99 224.8 20.55 C 224.87 20.81 225.08 21.01 225.35 21.06 C 225.61 21.12 225.88 21.02 226.05 20.81 L 231.44 14.16 C 235.84 20.67 235.79 27.37 233.83 33.31 C 233.71 33.69 233.92 34.09 234.29 34.22 C 234.48 34.28 234.67 34.26 234.85 34.18 C 235.02 34.09 235.15 33.94 235.21 33.76 C 237.35 27.27 237.34 19.65 232.09 12.5 C 231.96 12.32 231.75 12.21 231.53 12.21 C 231.31 12.2 231.09 12.3 230.95 12.47 L 225.86 18.75 C 224.63 13.8 224.22 8.77 226.16 3.04 C 226.4 2.33 226.28 1.58 225.89 0.97 C 225.55 0.43 224.92 0.01 224.18 0 Z M 212.36 20.82 C 211.97 20.82 211.57 20.93 211.2 21.13 L 211.2 21.13 C 207.39 23.25 203.94 26.88 202.81 33.39 C 202.75 33.78 203.01 34.15 203.4 34.22 C 203.8 34.29 204.17 34.02 204.24 33.63 C 205.29 27.52 208.36 24.36 211.9 22.39 C 211.9 22.39 211.9 22.39 211.9 22.39 C 212.28 22.18 212.65 22.24 212.87 22.41 C 213.09 22.58 213.26 22.86 213.06 23.5 C 213.05 23.51 213.05 23.52 213.05 23.53 C 212.27 26.35 212.42 29.79 214.18 32.76 C 214.29 32.95 214.49 33.08 214.72 33.1 C 216.55 33.3 218.17 32.54 219.04 30.88 C 219.22 30.62 219.44 30.48 219.63 30.44 C 219.82 30.41 219.99 30.43 220.24 30.67 C 221.34 31.76 221.95 32.85 222.22 33.74 C 222.34 34.13 222.75 34.34 223.13 34.22 C 223.51 34.11 223.72 33.7 223.6 33.32 C 223.25 32.17 222.51 30.88 221.25 29.63 C 221.25 29.63 221.24 29.62 221.24 29.61 C 220.7 29.11 219.99 28.9 219.35 29.03 C 218.72 29.15 218.18 29.56 217.82 30.1 C 217.81 30.13 217.79 30.15 217.78 30.17 C 217.21 31.3 216.42 31.66 215.24 31.62 C 213.92 29.13 213.79 26.27 214.44 23.91 C 214.77 22.84 214.45 21.81 213.75 21.27 C 213.4 21 212.97 20.84 212.53 20.82 C 212.47 20.82 212.41 20.81 212.36 20.82 Z M 183.59 38.72 C 181.61 38.72 180 40.33 180 42.31 L 180 66.41 C 180 68.39 181.61 70 183.59 70 L 246.53 70 C 248.51 70 250.12 68.39 250.12 66.41 L 250.12 42.31 C 250.12 40.33 248.51 38.72 246.53 38.72 Z M 183.59 40.16 L 191.91 40.16 L 191.91 47.61 L 181.44 47.61 L 181.44 42.31 C 181.44 41.11 182.39 40.16 183.59 40.16 Z M 193.35 40.16 L 227.76 40.16 L 227.76 47.61 L 193.35 47.61 Z M 229.2 40.16 L 246.53 40.16 C 247.73 40.16 248.68 41.11 248.68 42.31 L 248.68 47.61 L 229.2 47.61 Z M 181.44 49.06 L 211.31 49.06 L 211.31 58.07 L 181.44 58.07 Z M 212.75 49.06 L 248.68 49.06 L 248.68 58.07 L 212.75 58.07 Z M 181.44 59.52 L 191.91 59.52 L 191.91 68.56 L 183.59 68.56 C 182.39 68.56 181.44 67.61 181.44 66.41 Z M 193.35 59.52 L 227.76 59.52 L 227.76 68.56 L 193.35 68.56 Z M 229.2 59.52 L 248.68 59.52 L 248.68 66.41 C 248.68 67.61 247.73 68.56 246.53 68.56 L 229.2 68.56 Z" fill="#000000" stroke="none" pointer-events="all" style="fill: light-dark(rgb(0, 0, 0), rgb(237, 237, 237));"/></g></g><g data-cell-id="LsS-yT-F-6-oPk5ZD-E2-17"><g><path d="M 274 82.4 Q 274 82.4 256.25 68.12" fill="none" stroke="#000000" stroke-miterlimit="10" pointer-events="stroke" style="stroke: light-dark(rgb(0, 0, 0), rgb(255, 255, 255));"/><path d="M 250.99 63.89 L 260.82 66.03 L 256.25 68.12 L 255.18 73.04 Z" fill="#000000" stroke="#000000" stroke-miterlimit="10" pointer-events="all" style="fill: light-dark(rgb(0, 0, 0), rgb(255, 255, 255)); stroke: light-dark(rgb(0, 0, 0), rgb(255, 255, 255));"/></g></g><g data-cell-id="LsS-yT-F-6-oPk5ZD-E2-2"><g><rect x="274" y="80" width="50" height="45" fill="none" stroke="none" pointer-events="all"/><path d="M 310.73 98.61 C 310.07 98.61 309.55 98.11 309.55 97.42 C 309.55 93.58 309.55 93.58 309.55 93.58 C 302.73 100.23 302.73 100.23 302.73 100.23 C 302.26 100.69 301.52 100.69 301.04 100.23 C 300.87 100.1 300.87 100.1 300.87 100.1 C 300.39 99.6 300.39 98.87 300.87 98.42 C 307.72 91.67 307.72 91.67 307.72 91.67 C 303.69 91.67 303.69 91.67 303.69 91.67 C 303.04 91.67 302.51 91.17 302.51 90.54 C 302.51 90.28 302.51 90.28 302.51 90.28 C 302.51 89.63 303.04 89.09 303.69 89.09 C 310.55 89.09 310.55 89.09 310.55 89.09 C 310.68 89.09 310.76 89.14 310.85 89.18 C 311.15 89.18 311.42 89.28 311.63 89.5 C 311.8 89.68 311.8 89.68 311.8 89.68 C 312.12 89.91 312.19 90.28 312.15 90.63 C 312.15 90.63 312.19 90.68 312.19 90.73 C 312.19 97.42 312.19 97.42 312.19 97.42 C 312.19 98.11 311.63 98.61 310.98 98.61 Z M 295.49 114.5 L 295.49 114.72 C 295.49 115.41 294.96 115.91 294.27 115.91 C 294.27 115.91 294.27 115.91 287.46 115.91 C 287.46 115.91 287.37 115.91 287.37 115.91 C 287.02 115.91 286.63 115.82 286.42 115.54 C 286.42 115.54 286.42 115.54 286.24 115.41 C 285.98 115.18 285.89 114.87 285.89 114.59 C 285.85 114.5 285.81 114.41 285.81 114.27 C 285.81 114.27 285.81 114.27 285.81 107.58 C 285.81 106.89 286.38 106.39 287.02 106.39 C 287.02 106.39 287.02 106.39 287.29 106.39 C 287.93 106.39 288.46 106.89 288.46 107.58 C 288.46 107.58 288.46 107.58 288.46 111.51 C 288.46 111.51 288.46 111.51 295.31 104.81 C 295.79 104.31 296.53 104.31 297.01 104.81 C 297.01 104.81 297.01 104.81 297.18 104.94 C 297.62 105.44 297.62 106.17 297.18 106.62 C 297.18 106.62 297.18 106.62 290.37 113.33 C 290.37 113.33 290.37 113.33 294.27 113.33 C 294.96 113.33 295.49 113.87 295.49 114.5 Z M 310.07 105.76 C 310.07 106.44 309.55 106.94 308.86 106.94 C 304.95 106.94 304.95 106.94 304.95 106.94 C 311.76 113.64 311.76 113.64 311.76 113.64 C 312.2 114.09 312.2 114.87 311.76 115.32 C 311.6 115.45 311.6 115.45 311.6 115.45 C 311.12 115.91 310.33 115.91 309.85 115.45 C 303.04 108.74 303.04 108.74 303.04 108.74 C 303.04 112.69 303.04 112.69 303.04 112.69 C 303.04 113.33 302.48 113.87 301.87 113.87 C 301.61 113.87 301.61 113.87 301.61 113.87 C 300.91 113.87 300.39 113.33 300.39 112.69 C 300.39 105.98 300.39 105.98 300.39 105.98 C 300.39 105.85 300.39 105.76 300.43 105.66 C 300.48 105.4 300.56 105.09 300.78 104.85 C 300.96 104.72 300.96 104.72 300.96 104.72 C 301.21 104.44 301.56 104.31 301.9 104.36 C 301.95 104.36 302 104.36 302.05 104.36 C 308.86 104.36 308.86 104.36 308.86 104.36 C 309.55 104.36 310.07 104.9 310.07 105.53 Z M 296.27 91.36 L 296.49 91.36 C 297.09 91.36 297.61 91.9 297.61 92.58 C 297.61 92.58 297.61 92.58 297.61 99.73 C 297.61 99.78 297.61 99.83 297.61 99.87 C 297.61 100.23 297.53 100.6 297.26 100.86 C 297.26 100.86 297.26 100.86 297.14 101.01 C 296.92 101.27 296.61 101.36 296.36 101.42 C 296.27 101.42 296.18 101.42 296.09 101.42 C 296.09 101.42 296.09 101.42 289.63 101.42 C 289.01 101.42 288.5 100.86 288.5 100.19 C 288.5 100.19 288.5 100.19 288.5 99.91 C 288.5 99.24 289.01 98.69 289.63 98.69 C 289.63 98.69 289.63 98.69 293.4 98.69 C 293.4 98.69 293.4 98.69 286.98 91.58 C 286.5 91.08 286.5 90.27 286.98 89.78 C 286.98 89.78 286.98 89.78 287.11 89.6 C 287.59 89.09 288.29 89.09 288.71 89.6 C 288.71 89.6 288.71 89.6 295.14 96.7 C 295.14 96.7 295.14 96.7 295.14 92.58 C 295.14 91.9 295.61 91.36 296.27 91.36 Z M 310.36 123.17 L 321.73 102.34 L 310.36 81.63 L 287.68 81.63 L 276.29 102.33 L 287.66 123.17 Z M 286.37 125 L 274 102.41 L 286.33 80 L 311.64 80 L 324 102.41 L 311.63 125 Z" fill="#a153a0" stroke="none" pointer-events="all" style="fill: light-dark(rgb(161, 83, 160), rgb(255, 255, 255));"/><rect x="274.5" y="80.45" width="49" height="44.1" fill="none" stroke="none" pointer-events="all"/><path d="M 286.62 124.55 L 274.5 102.41 L 286.58 80.45 L 311.39 80.45 L 323.5 102.41 L 311.38 124.55 Z" fill="#ffffff" stroke="none" pointer-events="all" style="fill: light-dark(rgb(255, 255, 255), rgb(18, 18, 18));"/><rect x="274" y="80" width="50" height="45" fill="none" stroke="none" pointer-events="all"/><path d="M 310.73 98.61 C 310.07 98.61 309.55 98.11 309.55 97.42 C 309.55 93.58 309.55 93.58 309.55 93.58 C 302.73 100.23 302.73 100.23 302.73 100.23 C 302.26 100.69 301.52 100.69 301.04 100.23 C 300.87 100.1 300.87 100.1 300.87 100.1 C 300.39 99.6 300.39 98.87 300.87 98.42 C 307.72 91.67 307.72 91.67 307.72 91.67 C 303.69 91.67 303.69 91.67 303.69 91.67 C 303.04 91.67 302.51 91.17 302.51 90.54 C 302.51 90.28 302.51 90.28 302.51 90.28 C 302.51 89.63 303.04 89.09 303.69 89.09 C 310.55 89.09 310.55 89.09 310.55 89.09 C 310.68 89.09 310.76 89.14 310.85 89.18 C 311.15 89.18 311.42 89.28 311.63 89.5 C 311.8 89.68 311.8 89.68 311.8 89.68 C 312.12 89.91 312.19 90.28 312.15 90.63 C 312.15 90.63 312.19 90.68 312.19 90.73 C 312.19 97.42 312.19 97.42 312.19 97.42 C 312.19 98.11 311.63 98.61 310.98 98.61 Z M 295.49 114.5 L 295.49 114.72 C 295.49 115.41 294.96 115.91 294.27 115.91 C 294.27 115.91 294.27 115.91 287.46 115.91 C 287.46 115.91 287.37 115.91 287.37 115.91 C 287.02 115.91 286.63 115.82 286.42 115.54 C 286.42 115.54 286.42 115.54 286.24 115.41 C 285.98 115.18 285.89 114.87 285.89 114.59 C 285.85 114.5 285.81 114.41 285.81 114.27 C 285.81 114.27 285.81 114.27 285.81 107.58 C 285.81 106.89 286.38 106.39 287.02 106.39 C 287.02 106.39 287.02 106.39 287.29 106.39 C 287.93 106.39 288.46 106.89 288.46 107.58 C 288.46 107.58 288.46 107.58 288.46 111.51 C 288.46 111.51 288.46 111.51 295.31 104.81 C 295.79 104.31 296.53 104.31 297.01 104.81 C 297.01 104.81 297.01 104.81 297.18 104.94 C 297.62 105.44 297.62 106.17 297.18 106.62 C 297.18 106.62 297.18 106.62 290.37 113.33 C 290.37 113.33 290.37 113.33 294.27 113.33 C 294.96 113.33 295.49 113.87 295.49 114.5 Z M 310.07 105.76 C 310.07 106.44 309.55 106.94 308.86 106.94 C 304.95 106.94 304.95 106.94 304.95 106.94 C 311.76 113.64 311.76 113.64 311.76 113.64 C 312.2 114.09 312.2 114.87 311.76 115.32 C 311.6 115.45 311.6 115.45 311.6 115.45 C 311.12 115.91 310.33 115.91 309.85 115.45 C 303.04 108.74 303.04 108.74 303.04 108.74 C 303.04 112.69 303.04 112.69 303.04 112.69 C 303.04 113.33 302.48 113.87 301.87 113.87 C 301.61 113.87 301.61 113.87 301.61 113.87 C 300.91 113.87 300.39 113.33 300.39 112.69 C 300.39 105.98 300.39 105.98 300.39 105.98 C 300.39 105.85 300.39 105.76 300.43 105.66 C 300.48 105.4 300.56 105.09 300.78 104.85 C 300.96 104.72 300.96 104.72 300.96 104.72 C 301.21 104.44 301.56 104.31 301.9 104.36 C 301.95 104.36 302 104.36 302.05 104.36 C 308.86 104.36 308.86 104.36 308.86 104.36 C 309.55 104.36 310.07 104.9 310.07 105.53 Z M 296.27 91.36 L 296.49 91.36 C 297.09 91.36 297.61 91.9 297.61 92.58 C 297.61 92.58 297.61 92.58 297.61 99.73 C 297.61 99.78 297.61 99.83 297.61 99.87 C 297.61 100.23 297.53 100.6 297.26 100.86 C 297.26 100.86 297.26 100.86 297.14 101.01 C 296.92 101.27 296.61 101.36 296.36 101.42 C 296.27 101.42 296.18 101.42 296.09 101.42 C 296.09 101.42 296.09 101.42 289.63 101.42 C 289.01 101.42 288.5 100.86 288.5 100.19 C 288.5 100.19 288.5 100.19 288.5 99.91 C 288.5 99.24 289.01 98.69 289.63 98.69 C 289.63 98.69 289.63 98.69 293.4 98.69 C 293.4 98.69 293.4 98.69 286.98 91.58 C 286.5 91.08 286.5 90.27 286.98 89.78 C 286.98 89.78 286.98 89.78 287.11 89.6 C 287.59 89.09 288.29 89.09 288.71 89.6 C 288.71 89.6 288.71 89.6 295.14 96.7 C 295.14 96.7 295.14 96.7 295.14 92.58 C 295.14 91.9 295.61 91.36 296.27 91.36 Z M 310.36 123.17 L 321.73 102.34 L 310.36 81.63 L 287.68 81.63 L 276.29 102.33 L 287.66 123.17 Z M 286.37 125 L 274 102.41 L 286.33 80 L 311.64 80 L 324 102.41 L 311.63 125 Z" fill="#a153a0" stroke="none" pointer-events="all" style="fill: light-dark(rgb(161, 83, 160), rgb(255, 255, 255));"/></g></g><g data-cell-id="LsS-yT-F-6-oPk5ZD-E2-3"><g><rect x="284" y="190" width="30" height="30" fill="none" stroke="none" pointer-events="all"/><path d="M 285.84 190 C 284.83 190 284 190.82 284 191.83 L 284 218.17 C 284 219.18 284.83 220 285.84 220 L 312.16 220 C 313.17 220 314 219.18 314 218.17 L 314 191.83 C 314 190.82 313.17 190 312.16 190 Z" fill="#fafafa" stroke="none" pointer-events="all" style="fill: light-dark(rgb(250, 250, 250), rgb(22, 22, 22));"/><rect x="284" y="190" width="30" height="30" fill="none" stroke="none" pointer-events="all"/><path d="M 298.03 214.31 L 298.03 211.92 L 291.67 211.92 L 291.67 210.03 L 286.25 213.23 L 291.67 216.38 L 291.67 214.31 Z M 300.99 202.88 L 300.99 200.49 L 294.64 200.49 L 294.64 198.6 L 289.22 201.8 L 294.64 204.94 L 294.64 202.88 Z M 297.43 208.64 L 297.43 206.25 L 303.79 206.25 L 303.79 204.36 L 309.2 207.56 L 303.79 210.71 L 303.79 208.64 Z M 300.17 197.39 L 300.17 195.01 L 306.53 195.01 L 306.53 193.12 L 311.95 196.31 L 306.53 199.46 L 306.53 197.39 Z M 285.84 190 C 284.83 190 284 190.82 284 191.83 L 284 218.17 C 284 219.18 284.83 220 285.84 220 L 312.16 220 C 313.17 220 314 219.18 314 218.17 L 314 191.83 C 314 190.82 313.17 190 312.16 190 Z M 285.84 190.83 L 312.16 190.83 C 312.73 190.83 313.17 191.27 313.17 191.83 L 313.17 218.17 C 313.17 218.73 312.73 219.17 312.16 219.17 L 285.84 219.17 C 285.27 219.17 284.83 218.73 284.83 218.17 L 284.83 191.83 C 284.83 191.27 285.27 190.83 285.84 190.83 Z" fill="#005073" stroke="none" pointer-events="all" style="fill: light-dark(rgb(0, 80, 115), rgb(255, 255, 255));"/></g></g><g data-cell-id="LsS-yT-F-6-oPk5ZD-E2-16"><g><path d="M 150 83.76 Q 150 83.76 173.7 66" fill="none" stroke="#000000" stroke-miterlimit="10" pointer-events="stroke" style="stroke: light-dark(rgb(0, 0, 0), rgb(255, 255, 255));"/><path d="M 179.11 61.95 L 174.6 70.95 L 173.7 66 L 169.2 63.74 Z" fill="#000000" stroke="#000000" stroke-miterlimit="10" pointer-events="all" style="fill: light-dark(rgb(0, 0, 0), rgb(255, 255, 255)); stroke: light-dark(rgb(0, 0, 0), rgb(255, 255, 255));"/></g></g><g data-cell-id="LsS-yT-F-6-oPk5ZD-E2-4"><g><rect x="100" y="80" width="50" height="45" fill="none" stroke="none" pointer-events="all"/><path d="M 136.72 98.61 C 136.07 98.61 135.55 98.11 135.55 97.42 C 135.55 93.58 135.55 93.58 135.55 93.58 C 128.73 100.23 128.73 100.23 128.73 100.23 C 128.26 100.69 127.52 100.69 127.04 100.23 C 126.87 100.1 126.87 100.1 126.87 100.1 C 126.39 99.6 126.39 98.87 126.87 98.42 C 133.72 91.67 133.72 91.67 133.72 91.67 C 129.69 91.67 129.69 91.67 129.69 91.67 C 129.03 91.67 128.51 91.17 128.51 90.54 C 128.51 90.28 128.51 90.28 128.51 90.28 C 128.51 89.63 129.03 89.09 129.69 89.09 C 136.55 89.09 136.55 89.09 136.55 89.09 C 136.68 89.09 136.76 89.14 136.85 89.18 C 137.16 89.18 137.42 89.28 137.63 89.5 C 137.8 89.68 137.8 89.68 137.8 89.68 C 138.12 89.91 138.19 90.28 138.16 90.63 C 138.16 90.63 138.19 90.68 138.19 90.73 C 138.19 97.42 138.19 97.42 138.19 97.42 C 138.19 98.11 137.63 98.61 136.98 98.61 Z M 121.48 114.5 L 121.48 114.72 C 121.48 115.41 120.97 115.91 120.27 115.91 C 120.27 115.91 120.27 115.91 113.46 115.91 C 113.46 115.91 113.37 115.91 113.37 115.91 C 113.02 115.91 112.63 115.82 112.41 115.54 C 112.41 115.54 112.41 115.54 112.23 115.41 C 111.98 115.18 111.89 114.87 111.89 114.59 C 111.84 114.5 111.81 114.41 111.81 114.27 C 111.81 114.27 111.81 114.27 111.81 107.58 C 111.81 106.89 112.38 106.39 113.02 106.39 C 113.02 106.39 113.02 106.39 113.28 106.39 C 113.93 106.39 114.46 106.89 114.46 107.58 C 114.46 107.58 114.46 107.58 114.46 111.51 C 114.46 111.51 114.46 111.51 121.31 104.81 C 121.78 104.31 122.53 104.31 123.01 104.81 C 123.01 104.81 123.01 104.81 123.17 104.94 C 123.61 105.44 123.61 106.17 123.17 106.62 C 123.17 106.62 123.17 106.62 116.36 113.33 C 116.36 113.33 116.36 113.33 120.27 113.33 C 120.97 113.33 121.48 113.87 121.48 114.5 Z M 136.07 105.76 C 136.07 106.44 135.55 106.94 134.85 106.94 C 130.95 106.94 130.95 106.94 130.95 106.94 C 137.76 113.64 137.76 113.64 137.76 113.64 C 138.2 114.09 138.2 114.87 137.76 115.32 C 137.59 115.45 137.59 115.45 137.59 115.45 C 137.12 115.91 136.33 115.91 135.85 115.45 C 129.04 108.74 129.04 108.74 129.04 108.74 C 129.04 112.69 129.04 112.69 129.04 112.69 C 129.04 113.33 128.47 113.87 127.87 113.87 C 127.61 113.87 127.61 113.87 127.61 113.87 C 126.91 113.87 126.39 113.33 126.39 112.69 C 126.39 105.98 126.39 105.98 126.39 105.98 C 126.39 105.85 126.39 105.76 126.43 105.66 C 126.48 105.4 126.56 105.09 126.78 104.85 C 126.96 104.72 126.96 104.72 126.96 104.72 C 127.22 104.44 127.56 104.31 127.91 104.36 C 127.95 104.36 128 104.36 128.05 104.36 C 134.85 104.36 134.85 104.36 134.85 104.36 C 135.55 104.36 136.07 104.9 136.07 105.53 Z M 122.27 91.36 L 122.48 91.36 C 123.09 91.36 123.61 91.9 123.61 92.58 C 123.61 92.58 123.61 92.58 123.61 99.73 C 123.61 99.78 123.61 99.83 123.61 99.87 C 123.61 100.23 123.53 100.6 123.27 100.86 C 123.27 100.86 123.27 100.86 123.14 101.01 C 122.91 101.27 122.61 101.36 122.36 101.42 C 122.27 101.42 122.18 101.42 122.09 101.42 C 122.09 101.42 122.09 101.42 115.63 101.42 C 115.02 101.42 114.5 100.86 114.5 100.19 C 114.5 100.19 114.5 100.19 114.5 99.91 C 114.5 99.24 115.02 98.69 115.63 98.69 C 115.63 98.69 115.63 98.69 119.4 98.69 C 119.4 98.69 119.4 98.69 112.98 91.58 C 112.5 91.08 112.5 90.27 112.98 89.78 C 112.98 89.78 112.98 89.78 113.11 89.6 C 113.59 89.09 114.28 89.09 114.72 89.6 C 114.72 89.6 114.72 89.6 121.14 96.7 C 121.14 96.7 121.14 96.7 121.14 92.58 C 121.14 91.9 121.61 91.36 122.27 91.36 Z M 136.36 123.17 L 147.72 102.34 L 136.35 81.63 L 113.68 81.63 L 102.28 102.33 L 113.66 123.17 Z M 112.37 125 L 100 102.41 L 112.33 80 L 137.64 80 L 150 102.41 L 137.63 125 Z" fill="#a153a0" stroke="none" pointer-events="all" style="fill: light-dark(rgb(161, 83, 160), rgb(255, 255, 255));"/><rect x="100.5" y="80.45" width="49" height="44.1" fill="none" stroke="none" pointer-events="all"/><path d="M 112.62 124.55 L 100.5 102.41 L 112.58 80.45 L 137.39 80.45 L 149.5 102.41 L 137.38 124.55 Z" fill="#ffffff" stroke="none" pointer-events="all" style="fill: light-dark(rgb(255, 255, 255), rgb(18, 18, 18));"/><rect x="100" y="80" width="50" height="45" fill="none" stroke="none" pointer-events="all"/><path d="M 136.72 98.61 C 136.07 98.61 135.55 98.11 135.55 97.42 C 135.55 93.58 135.55 93.58 135.55 93.58 C 128.73 100.23 128.73 100.23 128.73 100.23 C 128.26 100.69 127.52 100.69 127.04 100.23 C 126.87 100.1 126.87 100.1 126.87 100.1 C 126.39 99.6 126.39 98.87 126.87 98.42 C 133.72 91.67 133.72 91.67 133.72 91.67 C 129.69 91.67 129.69 91.67 129.69 91.67 C 129.03 91.67 128.51 91.17 128.51 90.54 C 128.51 90.28 128.51 90.28 128.51 90.28 C 128.51 89.63 129.03 89.09 129.69 89.09 C 136.55 89.09 136.55 89.09 136.55 89.09 C 136.68 89.09 136.76 89.14 136.85 89.18 C 137.16 89.18 137.42 89.28 137.63 89.5 C 137.8 89.68 137.8 89.68 137.8 89.68 C 138.12 89.91 138.19 90.28 138.16 90.63 C 138.16 90.63 138.19 90.68 138.19 90.73 C 138.19 97.42 138.19 97.42 138.19 97.42 C 138.19 98.11 137.63 98.61 136.98 98.61 Z M 121.48 114.5 L 121.48 114.72 C 121.48 115.41 120.97 115.91 120.27 115.91 C 120.27 115.91 120.27 115.91 113.46 115.91 C 113.46 115.91 113.37 115.91 113.37 115.91 C 113.02 115.91 112.63 115.82 112.41 115.54 C 112.41 115.54 112.41 115.54 112.23 115.41 C 111.98 115.18 111.89 114.87 111.89 114.59 C 111.84 114.5 111.81 114.41 111.81 114.27 C 111.81 114.27 111.81 114.27 111.81 107.58 C 111.81 106.89 112.38 106.39 113.02 106.39 C 113.02 106.39 113.02 106.39 113.28 106.39 C 113.93 106.39 114.46 106.89 114.46 107.58 C 114.46 107.58 114.46 107.58 114.46 111.51 C 114.46 111.51 114.46 111.51 121.31 104.81 C 121.78 104.31 122.53 104.31 123.01 104.81 C 123.01 104.81 123.01 104.81 123.17 104.94 C 123.61 105.44 123.61 106.17 123.17 106.62 C 123.17 106.62 123.17 106.62 116.36 113.33 C 116.36 113.33 116.36 113.33 120.27 113.33 C 120.97 113.33 121.48 113.87 121.48 114.5 Z M 136.07 105.76 C 136.07 106.44 135.55 106.94 134.85 106.94 C 130.95 106.94 130.95 106.94 130.95 106.94 C 137.76 113.64 137.76 113.64 137.76 113.64 C 138.2 114.09 138.2 114.87 137.76 115.32 C 137.59 115.45 137.59 115.45 137.59 115.45 C 137.12 115.91 136.33 115.91 135.85 115.45 C 129.04 108.74 129.04 108.74 129.04 108.74 C 129.04 112.69 129.04 112.69 129.04 112.69 C 129.04 113.33 128.47 113.87 127.87 113.87 C 127.61 113.87 127.61 113.87 127.61 113.87 C 126.91 113.87 126.39 113.33 126.39 112.69 C 126.39 105.98 126.39 105.98 126.39 105.98 C 126.39 105.85 126.39 105.76 126.43 105.66 C 126.48 105.4 126.56 105.09 126.78 104.85 C 126.96 104.72 126.96 104.72 126.96 104.72 C 127.22 104.44 127.56 104.31 127.91 104.36 C 127.95 104.36 128 104.36 128.05 104.36 C 134.85 104.36 134.85 104.36 134.85 104.36 C 135.55 104.36 136.07 104.9 136.07 105.53 Z M 122.27 91.36 L 122.48 91.36 C 123.09 91.36 123.61 91.9 123.61 92.58 C 123.61 92.58 123.61 92.58 123.61 99.73 C 123.61 99.78 123.61 99.83 123.61 99.87 C 123.61 100.23 123.53 100.6 123.27 100.86 C 123.27 100.86 123.27 100.86 123.14 101.01 C 122.91 101.27 122.61 101.36 122.36 101.42 C 122.27 101.42 122.18 101.42 122.09 101.42 C 122.09 101.42 122.09 101.42 115.63 101.42 C 115.02 101.42 114.5 100.86 114.5 100.19 C 114.5 100.19 114.5 100.19 114.5 99.91 C 114.5 99.24 115.02 98.69 115.63 98.69 C 115.63 98.69 115.63 98.69 119.4 98.69 C 119.4 98.69 119.4 98.69 112.98 91.58 C 112.5 91.08 112.5 90.27 112.98 89.78 C 112.98 89.78 112.98 89.78 113.11 89.6 C 113.59 89.09 114.28 89.09 114.72 89.6 C 114.72 89.6 114.72 89.6 121.14 96.7 C 121.14 96.7 121.14 96.7 121.14 92.58 C 121.14 91.9 121.61 91.36 122.27 91.36 Z M 136.36 123.17 L 147.72 102.34 L 136.35 81.63 L 113.68 81.63 L 102.28 102.33 L 113.66 123.17 Z M 112.37 125 L 100 102.41 L 112.33 80 L 137.64 80 L 150 102.41 L 137.63 125 Z" fill="#a153a0" stroke="none" pointer-events="all" style="fill: light-dark(rgb(161, 83, 160), rgb(255, 255, 255));"/></g></g><g data-cell-id="LsS-yT-F-6-oPk5ZD-E2-5"><g><rect x="110" y="190" width="30" height="30" fill="none" stroke="none" pointer-events="all"/><path d="M 111.84 190 C 110.83 190 110 190.82 110 191.83 L 110 218.17 C 110 219.18 110.83 220 111.84 220 L 138.16 220 C 139.17 220 140 219.18 140 218.17 L 140 191.83 C 140 190.82 139.17 190 138.16 190 Z" fill="#fafafa" stroke="none" pointer-events="all" style="fill: light-dark(rgb(250, 250, 250), rgb(22, 22, 22));"/><rect x="110" y="190" width="30" height="30" fill="none" stroke="none" pointer-events="all"/><path d="M 124.03 214.31 L 124.03 211.92 L 117.67 211.92 L 117.67 210.03 L 112.25 213.23 L 117.67 216.38 L 117.67 214.31 Z M 126.99 202.88 L 126.99 200.49 L 120.64 200.49 L 120.64 198.6 L 115.22 201.8 L 120.64 204.94 L 120.64 202.88 Z M 123.43 208.64 L 123.43 206.25 L 129.79 206.25 L 129.79 204.36 L 135.2 207.56 L 129.79 210.71 L 129.79 208.64 Z M 126.17 197.39 L 126.17 195.01 L 132.53 195.01 L 132.53 193.12 L 137.95 196.31 L 132.53 199.46 L 132.53 197.39 Z M 111.84 190 C 110.83 190 110 190.82 110 191.83 L 110 218.17 C 110 219.18 110.83 220 111.84 220 L 138.16 220 C 139.17 220 140 219.18 140 218.17 L 140 191.83 C 140 190.82 139.17 190 138.16 190 Z M 111.84 190.83 L 138.16 190.83 C 138.73 190.83 139.17 191.27 139.17 191.83 L 139.17 218.17 C 139.17 218.73 138.73 219.17 138.16 219.17 L 111.84 219.17 C 111.27 219.17 110.83 218.73 110.83 218.17 L 110.83 191.83 C 110.83 191.27 111.27 190.83 111.84 190.83 Z" fill="#005073" stroke="none" pointer-events="all" style="fill: light-dark(rgb(0, 80, 115), rgb(255, 255, 255));"/></g></g><g data-cell-id="LsS-yT-F-6-oPk5ZD-E2-6"><g><path d="M 0.33 262.96 L 0.31 237.27 L 20.03 231 L 39.67 237.07 L 39.69 263.09 L 20.02 269.66 Z" fill="#4495d1" stroke="none" pointer-events="all" style="fill: light-dark(rgb(68, 149, 209), rgb(61, 131, 183));"/><path d="M 20.02 269.66 L 20.02 244.09 L 39.67 237.07 L 39.69 263.09 Z" fill="#06699a" stroke="none" pointer-events="all" style="fill: light-dark(rgb(6, 105, 154), rgb(92, 177, 219));"/><path d="M 20.02 244.09 L 0.31 237.27 L 20.03 231 L 39.67 237.07 Z" fill="#bbd9f1" stroke="none" pointer-events="all" style="fill: light-dark(rgb(187, 217, 241), rgb(34, 59, 80));"/><path d="M 0.65 262.76 L 20.02 269.33 L 39.35 262.91 L 39.35 237.17 L 20.03 231.31 L 0.65 237.42 Z M 0 263.21 L 0 236.97 L 20.03 230.64 L 40 236.7 L 40 263.35 L 20 270 Z" fill="#424242" stroke="none" pointer-events="all" style="fill: light-dark(rgb(66, 66, 66), rgb(180, 180, 180));"/><path d="M 9.58 257.01 L 10.01 248.86 L 12.01 249.55 L 13.26 255.22 L 14.64 250.49 L 16.62 251.2 L 16.99 259.6 L 15.49 259.08 L 15.3 252.73 L 13.73 258.34 L 12.56 257.92 L 11.2 251.43 L 10.99 257.52 Z M 4.72 255.32 L 2.57 246.24 L 4.24 246.85 L 5.67 253.5 L 7.13 247.86 L 8.75 248.43 L 6.49 255.94 Z" fill="#ffffff" stroke="none" pointer-events="all" style="fill: light-dark(rgb(255, 255, 255), rgb(18, 18, 18));"/><path d="M 4.6 238.9 L 4.62 220 L 18.83 225.07 L 18.83 243.82 Z" fill="#f69321" stroke="none" pointer-events="all" style="fill: light-dark(rgb(246, 147, 33), rgb(174, 89, 0));"/><path d="M 11.08 227.19 C 11.09 226.91 11.06 226.6 10.84 226.25 C 10.73 226.12 10.58 225.86 10.32 225.9 C 10.04 226.01 10.13 226.38 10.2 226.65 L 10.58 227.34 C 10.77 227.24 10.94 227.17 11.08 227.19 Z M 7.96 233.04 C 8.06 232.26 8.39 231.34 8.77 230.72 C 9.2 229.91 9.63 229.39 9.97 228.69 C 10.03 228.6 10.06 228.48 10.01 228.2 C 9.87 227.24 9.85 226.38 9.91 225.56 C 9.94 224.62 10.03 224.4 10.2 224.13 C 10.46 223.73 10.87 223.68 11.3 223.73 C 12.06 223.81 12.64 224.45 13.01 224.99 C 13.57 225.85 13.61 226.35 13.63 227.04 C 13.59 227.93 13.68 228.65 13.83 229.32 C 14.06 230.27 14.44 231.09 14.81 231.91 C 15.64 233.66 15.75 234.58 15.93 235.02 C 16.06 235.34 16.02 235.59 15.92 235.83 C 15.81 235.98 15.68 236.03 15.52 235.99 C 15.42 236.16 15.33 236.31 15.09 236.52 C 14.9 236.68 14.66 236.62 14.45 236.36 C 14.37 236.26 14.38 235.96 14.37 235.69 C 14.35 235.54 14.33 235.39 14.16 235.29 C 14.18 234.95 14.19 234.63 14.13 234.08 C 14.07 233.63 13.97 233.09 13.57 232.08 C 13.3 231.26 13.14 230.79 13.02 230 C 12.92 229.64 12.78 229.24 12.99 229.01 C 13.06 228.95 13.06 228.82 12.99 228.6 C 12.9 228.25 12.73 228.05 12.59 227.96 L 12.58 227.81 C 12.71 227.64 12.76 227.41 12.75 227.11 C 12.7 226.84 12.61 226.5 12.23 226.27 C 12.01 226.18 11.85 226.15 11.7 226.33 C 11.52 226.67 11.51 226.91 11.56 227.33 C 11.82 227.53 12.06 227.56 12.25 227.8 C 12.8 228.35 12.85 228.57 12.71 228.97 C 12.58 229.29 12.23 229.46 11.82 229.53 C 11.47 229.58 10.97 229.29 10.65 228.82 C 10.35 228.38 10.18 228.03 10.22 227.86 C 10.15 228.06 10.04 228.23 10.23 228.67 C 10.37 229.01 10.3 229.24 10.2 229.44 C 10.06 229.66 9.94 229.85 9.84 230.01 C 9.78 230.1 9.75 230.2 9.84 230.37 C 10.03 230.58 10.15 230.77 10.15 230.9 C 9.92 230.94 9.8 231.19 9.65 231.53 C 9.41 232.3 9.18 233.09 9.11 233.93 C 8.87 233.41 8.53 233 7.96 233.04 Z M 13.32 240.21 C 13.16 239.74 13.18 239.24 13.32 238.6 C 13.37 238.16 13.42 237.56 13.42 237.22 C 13.42 236.78 13.44 236.3 13.49 235.89 C 13.57 235.69 13.75 235.64 13.88 235.71 C 14.11 235.79 14.11 236.23 14.14 236.5 C 14.25 237.05 14.37 237.22 14.75 237.31 C 15.09 237.34 15.3 237.12 15.61 236.72 C 15.83 236.73 15.95 236.87 16.04 237.02 C 16.19 237.27 16.23 237.42 16.26 237.73 C 16.28 237.99 16.45 238.18 16.71 238.38 C 17 238.7 16.95 239.02 16.92 239.24 C 16.8 239.62 16.55 239.86 16.21 239.99 C 15.62 240.23 15.43 240.4 15.19 240.61 C 14.81 240.92 14.33 241.12 13.87 240.82 C 13.63 240.67 13.45 240.58 13.32 240.21 Z M 10.97 239.09 C 10.97 238.77 11.01 238.41 10.94 238.15 C 11.35 238.4 11.78 238.57 12.16 238.48 C 12.49 238.4 12.71 238.23 13.01 238.04 C 12.89 238.53 12.83 239.17 12.85 239.83 C 12.33 239.51 11.9 239.25 10.97 239.09 Z M 9.92 239.35 C 9.65 239.32 9.29 239.17 8.91 238.8 C 8.68 238.55 8.32 238.26 7.89 237.99 C 7.49 237.73 7.25 237.67 6.89 237.42 C 6.58 237.19 6.39 236.83 6.6 236.35 C 6.68 235.94 6.68 235.68 6.63 235.46 C 6.49 234.92 6.39 234.6 6.65 234.57 C 6.99 234.52 7.3 234.45 7.55 234.38 C 7.91 234.25 7.87 234.06 7.86 233.91 C 7.86 233.73 8.06 233.63 8.23 233.68 C 8.65 233.83 8.87 234.2 9.06 234.62 C 9.3 235.17 9.41 235.54 9.56 235.98 C 9.75 236.47 10.03 237.07 10.32 237.66 C 10.51 238.08 10.65 238.38 10.59 238.87 C 10.49 239.24 10.27 239.39 9.92 239.35 Z" fill="#ffffff" stroke="none" pointer-events="all" style="fill: light-dark(rgb(255, 255, 255), rgb(18, 18, 18));"/></g></g><g data-cell-id="LsS-yT-F-6-oPk5ZD-E2-7"><g><path d="M 20 220 L 20 205 L 102.13 205" fill="none" stroke="#000000" stroke-miterlimit="10" pointer-events="stroke" style="stroke: light-dark(rgb(0, 0, 0), rgb(255, 255, 255));"/><path d="M 108.88 205 L 99.88 209.5 L 102.13 205 L 99.88 200.5 Z" fill="#000000" stroke="#000000" stroke-miterlimit="10" pointer-events="all" style="fill: light-dark(rgb(0, 0, 0), rgb(255, 255, 255)); stroke: light-dark(rgb(0, 0, 0), rgb(255, 255, 255));"/></g></g><g data-cell-id="LsS-yT-F-6-oPk5ZD-E2-8"><g><path d="M 50.33 322.96 L 50.31 297.27 L 70.03 291 L 89.67 297.07 L 89.69 323.09 L 70.02 329.66 Z" fill="#4495d1" stroke="none" pointer-events="all" style="fill: light-dark(rgb(68, 149, 209), rgb(61, 131, 183));"/><path d="M 70.02 329.66 L 70.02 304.09 L 89.67 297.07 L 89.69 323.09 Z" fill="#06699a" stroke="none" pointer-events="all" style="fill: light-dark(rgb(6, 105, 154), rgb(92, 177, 219));"/><path d="M 70.02 304.09 L 50.31 297.27 L 70.03 291 L 89.67 297.07 Z" fill="#bbd9f1" stroke="none" pointer-events="all" style="fill: light-dark(rgb(187, 217, 241), rgb(34, 59, 80));"/><path d="M 50.65 322.76 L 70.02 329.33 L 89.35 322.91 L 89.35 297.17 L 70.03 291.31 L 50.65 297.42 Z M 50 323.21 L 50 296.97 L 70.03 290.64 L 90 296.7 L 90 323.35 L 70 330 Z" fill="#424242" stroke="none" pointer-events="all" style="fill: light-dark(rgb(66, 66, 66), rgb(180, 180, 180));"/><path d="M 59.58 317.01 L 60.01 308.86 L 62.01 309.55 L 63.26 315.22 L 64.64 310.49 L 66.62 311.2 L 66.99 319.6 L 65.49 319.08 L 65.3 312.73 L 63.73 318.34 L 62.56 317.92 L 61.2 311.43 L 60.99 317.52 Z M 54.72 315.32 L 52.57 306.24 L 54.24 306.85 L 55.67 313.5 L 57.13 307.86 L 58.75 308.43 L 56.49 315.94 Z" fill="#ffffff" stroke="none" pointer-events="all" style="fill: light-dark(rgb(255, 255, 255), rgb(18, 18, 18));"/><path d="M 54.6 298.9 L 54.62 280 L 68.83 285.07 L 68.83 303.82 Z" fill="#f69321" stroke="none" pointer-events="all" style="fill: light-dark(rgb(246, 147, 33), rgb(174, 89, 0));"/><path d="M 61.08 287.19 C 61.09 286.91 61.06 286.6 60.84 286.25 C 60.73 286.12 60.58 285.86 60.32 285.9 C 60.04 286.01 60.13 286.38 60.2 286.65 L 60.58 287.34 C 60.77 287.24 60.94 287.17 61.08 287.19 Z M 57.96 293.04 C 58.06 292.26 58.39 291.34 58.77 290.72 C 59.2 289.91 59.63 289.39 59.97 288.69 C 60.03 288.6 60.06 288.48 60.01 288.2 C 59.87 287.24 59.85 286.38 59.91 285.56 C 59.94 284.62 60.03 284.4 60.2 284.13 C 60.46 283.73 60.87 283.68 61.3 283.73 C 62.06 283.81 62.64 284.45 63.01 284.99 C 63.57 285.85 63.61 286.35 63.63 287.04 C 63.59 287.93 63.68 288.65 63.83 289.32 C 64.06 290.27 64.44 291.09 64.81 291.91 C 65.64 293.66 65.75 294.58 65.93 295.02 C 66.06 295.34 66.02 295.59 65.92 295.83 C 65.81 295.98 65.68 296.03 65.52 295.99 C 65.42 296.16 65.33 296.31 65.09 296.52 C 64.9 296.68 64.66 296.62 64.45 296.36 C 64.37 296.26 64.38 295.96 64.37 295.69 C 64.35 295.54 64.33 295.39 64.16 295.29 C 64.18 294.95 64.19 294.63 64.13 294.08 C 64.07 293.63 63.97 293.09 63.57 292.08 C 63.3 291.26 63.14 290.79 63.02 290 C 62.92 289.64 62.78 289.24 62.99 289.01 C 63.06 288.95 63.06 288.82 62.99 288.6 C 62.9 288.25 62.73 288.05 62.59 287.96 L 62.58 287.81 C 62.71 287.64 62.76 287.41 62.75 287.11 C 62.7 286.84 62.61 286.5 62.23 286.27 C 62.01 286.18 61.85 286.15 61.7 286.33 C 61.52 286.67 61.51 286.91 61.56 287.33 C 61.82 287.53 62.06 287.56 62.25 287.8 C 62.8 288.35 62.85 288.57 62.71 288.97 C 62.58 289.29 62.23 289.46 61.82 289.53 C 61.47 289.58 60.97 289.29 60.65 288.82 C 60.35 288.38 60.18 288.03 60.22 287.86 C 60.15 288.06 60.04 288.23 60.23 288.67 C 60.37 289.01 60.3 289.24 60.2 289.44 C 60.06 289.66 59.94 289.85 59.84 290.01 C 59.78 290.1 59.75 290.2 59.84 290.37 C 60.03 290.58 60.15 290.77 60.15 290.9 C 59.92 290.94 59.8 291.19 59.65 291.53 C 59.41 292.3 59.18 293.09 59.11 293.93 C 58.87 293.41 58.53 293 57.96 293.04 Z M 63.32 300.21 C 63.16 299.74 63.18 299.24 63.32 298.6 C 63.37 298.16 63.42 297.56 63.42 297.22 C 63.42 296.78 63.44 296.3 63.49 295.89 C 63.57 295.69 63.75 295.64 63.88 295.71 C 64.11 295.79 64.11 296.23 64.14 296.5 C 64.25 297.05 64.37 297.22 64.75 297.31 C 65.09 297.34 65.3 297.12 65.61 296.72 C 65.83 296.73 65.95 296.87 66.04 297.02 C 66.19 297.27 66.23 297.42 66.26 297.73 C 66.28 297.99 66.45 298.18 66.71 298.38 C 67 298.7 66.95 299.02 66.92 299.24 C 66.8 299.62 66.55 299.86 66.21 299.99 C 65.62 300.23 65.43 300.4 65.19 300.61 C 64.81 300.92 64.33 301.12 63.87 300.82 C 63.63 300.67 63.45 300.58 63.32 300.21 Z M 60.97 299.09 C 60.97 298.77 61.01 298.41 60.94 298.15 C 61.35 298.4 61.78 298.57 62.16 298.48 C 62.49 298.4 62.71 298.23 63.01 298.04 C 62.89 298.53 62.83 299.17 62.85 299.83 C 62.33 299.51 61.9 299.25 60.97 299.09 Z M 59.92 299.35 C 59.65 299.32 59.29 299.17 58.91 298.8 C 58.68 298.55 58.32 298.26 57.89 297.99 C 57.49 297.73 57.25 297.67 56.89 297.42 C 56.58 297.19 56.39 296.83 56.6 296.35 C 56.68 295.94 56.68 295.68 56.63 295.46 C 56.49 294.92 56.39 294.6 56.65 294.57 C 56.99 294.52 57.3 294.45 57.55 294.38 C 57.91 294.25 57.87 294.06 57.86 293.91 C 57.86 293.73 58.06 293.63 58.23 293.68 C 58.65 293.83 58.87 294.2 59.06 294.62 C 59.3 295.17 59.41 295.54 59.56 295.98 C 59.75 296.47 60.03 297.07 60.32 297.66 C 60.51 298.08 60.65 298.38 60.59 298.87 C 60.49 299.24 60.27 299.39 59.92 299.35 Z" fill="#ffffff" stroke="none" pointer-events="all" style="fill: light-dark(rgb(255, 255, 255), rgb(18, 18, 18));"/></g></g><g data-cell-id="LsS-yT-F-6-oPk5ZD-E2-9"><g><path d="M 90 305 L 125 305 L 125 227.87" fill="none" stroke="#000000" stroke-miterlimit="10" pointer-events="stroke" style="stroke: light-dark(rgb(0, 0, 0), rgb(255, 255, 255));"/><path d="M 125 221.12 L 129.5 230.12 L 125 227.87 L 120.5 230.12 Z" fill="#000000" stroke="#000000" stroke-miterlimit="10" pointer-events="all" style="fill: light-dark(rgb(0, 0, 0), rgb(255, 255, 255)); stroke: light-dark(rgb(0, 0, 0), rgb(255, 255, 255));"/></g></g><g data-cell-id="LsS-yT-F-6-oPk5ZD-E2-10"><g><g><svg height="30" width="32.61" xmlns="http://www.w3.org/2000/svg" x="360" y="240" viewBox="0 0 50 46" style="font-family: initial;"><path fill="#7a7a7a" d="M33 36H19.27c1.65 6-.566 6.86-10.27 6.86V46h33v-3.14c-9.705 0-10.656-.857-9.005-6.86"/><path fill="#a0a1a2" d="M46.98 0H2.718C1.214 0 .001 1.345.001 2.847v31.33C.001 35.67 1.214 37 2.718 37h44.26c1.5 0 3.02-1.33 3.02-2.823V2.847C50 1.34 48.48 0 46.98 0"/><path fill="#fff" opacity=".2" d="M47 .003c-.01 0-.02-.002-.03-.002H2.717C1.213.001 0 1.345 0 2.848v31.328C0 35.67 1.213 37 2.717 37H3.77z"/><path fill="#59b4d9" d="M4 33V4h42v29z"/><path fill="#a0a1a2" d="M9 43h33v3H9z"/><path fill="#b8d432" d="M25.517 2.095a.71.71 0 0 1-.71.71.71.71 0 0 1-.709-.71.71.71 0 0 1 .709-.71.71.71 0 0 1 .71.71"/><g opacity=".85"><path fill="#fff" opacity=".4" d="M26.704 11.83l-.512.315-.443-.807c-.17-.308-.193-.57-.078-.846a.58.58 0 0 1 .556-.375l.06.002c.285.023.57.318.655.58.09.278.09.93-.238 1.13z"/><path fill="#fbfbf9" d="M21.73 27.35c.001-.03-2.533-4.095-2.384-4.8 1.194-5.673 2.614-6.5 3.134-7.7s.22-2.305.842-2.32 2.443.123 2.887.27 1.074.595 1.423 1.574c.473.895.938 1.793 1.084 2.814.013.094.055.184.12.254 1.18 1.3 1.42 2.88 1.333 4.55-.022.423-.077 1.046-.134 1.264s-1.65 5.377-4.16 5.315-3.847-.998-4.143-1.224z"/><path fill="#ff8c00" d="M35.228 26.146c-.92-.046-1.404-.598-1.408-1.126-.005-.618.255-1.395-.64-1.473l-3.217-.264c-1.07-.197-1.125.24-1.142.55-.008.146.127 1.597-.014 2.163.01.246-.008.49-.046.735l-.267 1.987-.017.97c.78 1.146 2.293 1.19 3.23.196.88-.894 1.94-1.51 3.057-2.052.316-.154.615-.385.783-.83s.01-.84-.32-.855z"/><path fill="#1e1e1e" d="M23 25.593c-.126.618-.796 1.165-1.143 1.118-.215-.118-.8-.9-.925-1.08-.38-.577-2.044-2.962-2.53-2.78-.158.02-.248.13-.33.25l-.1.04a1.68 1.68 0 0 1 .05-1.58c.613-1.12.896-2.27 1.208-3.515.105-.418.36-.766.624-1.1.492-.625.48-1.253.982-1.87.32-.394.602-.823.572-1.333L21.21 9.47c.06-1.4 1.292-2.596 2.675-3.104 1.434-.527 2.8-.268 3.943.764.905.8 1.3 1.874 1.37 3.07l.015.658c-.103 2.247.842 4.076 2.274 5.7 1.374 1.566 1.912 3.443 2.036 5.47.032.53-.138 1.025-.355 1.502-.3.7-.73 1.12-1.124 1.297s-1.947.3-1.646-.72c.148-.502.172-.715-.447-.84l.134-1.264c.087-1.67-.206-3-1.472-4.177-.4-.367-.024-.427-.037-.757-.033-.9-.554-1.8-1.027-2.684a1.11 1.11 0 0 0-.228-.442c.035-.14-.053-.24-.1-.352.07-.283.2-.557.134-.86.004-.26-2.666-.372-3-.24-.14-.047-1.562-.108-1.558-.084-.192.143-.327.332-.387.56-.057.216.3.663.327.736l-.048.916-.1.32L21.9 16c-.197.32-.422.63-.45 1.023-.155.4.4.93-.105 1.396s-1 2.714-1.02 3.244c-.01.57 1.032 1.872 1.43 2.248.73.688 1.387.95 1.238 1.68zm-.505 2.145c1.076.304 4.105.395 5.576-1.08l.74-.675c.01.246-.008.5-.046.735l-.267 1.987-.017.97c-1.356-.373-3.4-.505-4-.473s-1.437.184-1.918.3z"/><path fill="#dda516" d="M33.9 25.184l-.067-.096.067.096zm-.394-1.4l-.087-.083.087.083z"/><path fill="#8c5f07" d="M21.888 26.837l.043.07-.043-.07z"/><path fill="#e3a906" d="M33.42 23.7h-.002.001z"/><path fill="#ff8c00" d="M21.448 26.19c-.786-.815-1.39-1.804-1.942-2.91-.29-.582-1.18-1.044-1.512-.13s-.86 1.285-1.724 1.17c-.63-.084-1.223.4-.96 1.198.285.86.6 1.533-.014 2.135s-.37 1.225.508 1.344 3.2.645 4.523 1.35 2.398-.628 2.54-1.022c.352-.976-.632-2.32-1.42-3.135z"/><path fill="#1e1e1e" d="M24.422 16.628c-.75 0-1.253-.71-1.607-1.33-.003 0-1.162-1.626-.74-2.524.06-.126.158-.338 1.35-1.075l.222-.188.212-.107.137-.054c.164-.052.35-.104.528-.104h.082l.158.037.355.12 2.897 1.07.08.434c.066.353-.022.66-.094.905l-.1.425-.248.09c-.22.08-.56.446-.836.74s-.53.568-.796.74l-.298.22c-.415.31-.806.603-1.295.603z"/><path fill="#ff8c00" d="M26.355 13.07c-.513.443-1.1.824-1.828.844-.027.023-.027.023 0 0 .005-.166-.005-.325-.146-.446-.117-.1-.13-.248-.097-.378.137-.524.053-1.055.073-1.582-.137-.046-.45.07-.492.08l-.19.096-.218.182c-.093.058-1.078.66-1.18.873-.26.552.596 1.905.72 2.063 1 1.755 1.555.994 2.494.337.504-.326 1.16-1.32 1.73-1.53.07-.283.19-.557.134-.86-.36.02-.68.044-1 .32z"/><path fill="#e3a906" d="M23.942 11.516z"/><path fill="#fcd116" d="M26.946 12.35c.217.11.415.233.41.518-.395.024-.746.05-1.096.353-.56.485-1.32 1.203-2.12 1.225.032-.262-.345-.64-.243-1.086.132-.577.153-1.272.175-1.85.365-.146.704-.013 1.046.094l.427.258.747.286c.196.134.43.15.652.202z"/></g><path fill="#fff" opacity=".9" d="M23 10.554h1v1h-1zm3 0h1v1h-1z"/></svg></g></g></g><g data-cell-id="LsS-yT-F-6-oPk5ZD-E2-11"><g><g><svg height="30" width="32.61" xmlns="http://www.w3.org/2000/svg" x="420" y="240" viewBox="0 0 50 46" style="font-family: initial;"><path fill="#7a7a7a" d="M33 36H19.27c1.65 6-.566 6.86-10.27 6.86V46h33v-3.14c-9.705 0-10.656-.857-9.005-6.86"/><path fill="#a0a1a2" d="M46.98 0H2.718C1.214 0 .001 1.345.001 2.847v31.33C.001 35.67 1.214 37 2.718 37h44.26c1.5 0 3.02-1.33 3.02-2.823V2.847C50 1.34 48.48 0 46.98 0"/><path fill="#fff" opacity=".2" d="M47 .003c-.01 0-.02-.002-.03-.002H2.717C1.213.001 0 1.345 0 2.848v31.328C0 35.67 1.213 37 2.717 37H3.77z"/><path fill="#59b4d9" d="M4 33V4h42v29z"/><path fill="#a0a1a2" d="M9 43h33v3H9z"/><path fill="#b8d432" d="M25.517 2.095a.71.71 0 0 1-.71.71.71.71 0 0 1-.709-.71.71.71 0 0 1 .709-.71.71.71 0 0 1 .71.71"/><g opacity=".85"><path fill="#fff" opacity=".4" d="M26.704 11.83l-.512.315-.443-.807c-.17-.308-.193-.57-.078-.846a.58.58 0 0 1 .556-.375l.06.002c.285.023.57.318.655.58.09.278.09.93-.238 1.13z"/><path fill="#fbfbf9" d="M21.73 27.35c.001-.03-2.533-4.095-2.384-4.8 1.194-5.673 2.614-6.5 3.134-7.7s.22-2.305.842-2.32 2.443.123 2.887.27 1.074.595 1.423 1.574c.473.895.938 1.793 1.084 2.814.013.094.055.184.12.254 1.18 1.3 1.42 2.88 1.333 4.55-.022.423-.077 1.046-.134 1.264s-1.65 5.377-4.16 5.315-3.847-.998-4.143-1.224z"/><path fill="#ff8c00" d="M35.228 26.146c-.92-.046-1.404-.598-1.408-1.126-.005-.618.255-1.395-.64-1.473l-3.217-.264c-1.07-.197-1.125.24-1.142.55-.008.146.127 1.597-.014 2.163.01.246-.008.49-.046.735l-.267 1.987-.017.97c.78 1.146 2.293 1.19 3.23.196.88-.894 1.94-1.51 3.057-2.052.316-.154.615-.385.783-.83s.01-.84-.32-.855z"/><path fill="#1e1e1e" d="M23 25.593c-.126.618-.796 1.165-1.143 1.118-.215-.118-.8-.9-.925-1.08-.38-.577-2.044-2.962-2.53-2.78-.158.02-.248.13-.33.25l-.1.04a1.68 1.68 0 0 1 .05-1.58c.613-1.12.896-2.27 1.208-3.515.105-.418.36-.766.624-1.1.492-.625.48-1.253.982-1.87.32-.394.602-.823.572-1.333L21.21 9.47c.06-1.4 1.292-2.596 2.675-3.104 1.434-.527 2.8-.268 3.943.764.905.8 1.3 1.874 1.37 3.07l.015.658c-.103 2.247.842 4.076 2.274 5.7 1.374 1.566 1.912 3.443 2.036 5.47.032.53-.138 1.025-.355 1.502-.3.7-.73 1.12-1.124 1.297s-1.947.3-1.646-.72c.148-.502.172-.715-.447-.84l.134-1.264c.087-1.67-.206-3-1.472-4.177-.4-.367-.024-.427-.037-.757-.033-.9-.554-1.8-1.027-2.684a1.11 1.11 0 0 0-.228-.442c.035-.14-.053-.24-.1-.352.07-.283.2-.557.134-.86.004-.26-2.666-.372-3-.24-.14-.047-1.562-.108-1.558-.084-.192.143-.327.332-.387.56-.057.216.3.663.327.736l-.048.916-.1.32L21.9 16c-.197.32-.422.63-.45 1.023-.155.4.4.93-.105 1.396s-1 2.714-1.02 3.244c-.01.57 1.032 1.872 1.43 2.248.73.688 1.387.95 1.238 1.68zm-.505 2.145c1.076.304 4.105.395 5.576-1.08l.74-.675c.01.246-.008.5-.046.735l-.267 1.987-.017.97c-1.356-.373-3.4-.505-4-.473s-1.437.184-1.918.3z"/><path fill="#dda516" d="M33.9 25.184l-.067-.096.067.096zm-.394-1.4l-.087-.083.087.083z"/><path fill="#8c5f07" d="M21.888 26.837l.043.07-.043-.07z"/><path fill="#e3a906" d="M33.42 23.7h-.002.001z"/><path fill="#ff8c00" d="M21.448 26.19c-.786-.815-1.39-1.804-1.942-2.91-.29-.582-1.18-1.044-1.512-.13s-.86 1.285-1.724 1.17c-.63-.084-1.223.4-.96 1.198.285.86.6 1.533-.014 2.135s-.37 1.225.508 1.344 3.2.645 4.523 1.35 2.398-.628 2.54-1.022c.352-.976-.632-2.32-1.42-3.135z"/><path fill="#1e1e1e" d="M24.422 16.628c-.75 0-1.253-.71-1.607-1.33-.003 0-1.162-1.626-.74-2.524.06-.126.158-.338 1.35-1.075l.222-.188.212-.107.137-.054c.164-.052.35-.104.528-.104h.082l.158.037.355.12 2.897 1.07.08.434c.066.353-.022.66-.094.905l-.1.425-.248.09c-.22.08-.56.446-.836.74s-.53.568-.796.74l-.298.22c-.415.31-.806.603-1.295.603z"/><path fill="#ff8c00" d="M26.355 13.07c-.513.443-1.1.824-1.828.844-.027.023-.027.023 0 0 .005-.166-.005-.325-.146-.446-.117-.1-.13-.248-.097-.378.137-.524.053-1.055.073-1.582-.137-.046-.45.07-.492.08l-.19.096-.218.182c-.093.058-1.078.66-1.18.873-.26.552.596 1.905.72 2.063 1 1.755 1.555.994 2.494.337.504-.326 1.16-1.32 1.73-1.53.07-.283.19-.557.134-.86-.36.02-.68.044-1 .32z"/><path fill="#e3a906" d="M23.942 11.516z"/><path fill="#fcd116" d="M26.946 12.35c.217.11.415.233.41.518-.395.024-.746.05-1.096.353-.56.485-1.32 1.203-2.12 1.225.032-.262-.345-.64-.243-1.086.132-.577.153-1.272.175-1.85.365-.146.704-.013 1.046.094l.427.258.747.286c.196.134.43.15.652.202z"/></g><path fill="#fff" opacity=".9" d="M23 10.554h1v1h-1zm3 0h1v1h-1z"/></svg></g></g></g><g data-cell-id="LsS-yT-F-6-oPk5ZD-E2-12"><g><path d="M 360 241.92 Q 360 241.92 320.14 209.92" fill="none" stroke="#000000" stroke-miterlimit="10" pointer-events="stroke" style="stroke: light-dark(rgb(0, 0, 0), rgb(255, 255, 255));"/><path d="M 314.87 205.7 L 324.71 207.82 L 320.14 209.92 L 319.07 214.84 Z" fill="#000000" stroke="#000000" stroke-miterlimit="10" pointer-events="all" style="fill: light-dark(rgb(0, 0, 0), rgb(255, 255, 255)); stroke: light-dark(rgb(0, 0, 0), rgb(255, 255, 255));"/></g></g><g data-cell-id="LsS-yT-F-6-oPk5ZD-E2-13"><g><path d="M 420 248.33 Q 420 248.33 321.28 207.98" fill="none" stroke="#000000" stroke-miterlimit="10" pointer-events="stroke" style="stroke: light-dark(rgb(0, 0, 0), rgb(255, 255, 255));"/><path d="M 315.03 205.42 L 325.07 204.66 L 321.28 207.98 L 321.66 212.99 Z" fill="#000000" stroke="#000000" stroke-miterlimit="10" pointer-events="all" style="fill: light-dark(rgb(0, 0, 0), rgb(255, 255, 255)); stroke: light-dark(rgb(0, 0, 0), rgb(255, 255, 255));"/></g></g><g data-cell-id="LsS-yT-F-6-oPk5ZD-E2-14"><g><path d="M 298.7 190 Q 298.7 190 297.36 123.87" fill="none" stroke="#000000" stroke-miterlimit="10" pointer-events="stroke" style="stroke: light-dark(rgb(0, 0, 0), rgb(255, 255, 255));"/><path d="M 297.22 117.12 L 301.9 126.02 L 297.36 123.87 L 292.91 126.21 Z" fill="#000000" stroke="#000000" stroke-miterlimit="10" pointer-events="all" style="fill: light-dark(rgb(0, 0, 0), rgb(255, 255, 255)); stroke: light-dark(rgb(0, 0, 0), rgb(255, 255, 255));"/></g></g><g data-cell-id="LsS-yT-F-6-oPk5ZD-E2-15"><g><path d="M 125 190 Q 125 190 125 132.87" fill="none" stroke="#000000" stroke-miterlimit="10" pointer-events="stroke" style="stroke: light-dark(rgb(0, 0, 0), rgb(255, 255, 255));"/><path d="M 125 126.12 L 129.5 135.12 L 125 132.87 L 120.5 135.12 Z" fill="#000000" stroke="#000000" stroke-miterlimit="10" pointer-events="all" style="fill: light-dark(rgb(0, 0, 0), rgb(255, 255, 255)); stroke: light-dark(rgb(0, 0, 0), rgb(255, 255, 255));"/></g></g></g></g></g></svg>